<svg width="16" height="16" viewBox="0 0 16 16" xmlns="http://www.w3.org/2000/svg">
  <defs>
    <linearGradient id="grad1" x1="0%" y1="0%" x2="100%" y2="100%">
      <stop offset="0%" style="stop-color:#667eea;stop-opacity:1" />
      <stop offset="100%" style="stop-color:#764ba2;stop-opacity:1" />
    </linearGradient>
  </defs>
  
  <!-- Background circle -->
  <circle cx="8" cy="8" r="7.5" fill="url(#grad1)" stroke="white" stroke-width="0.5"/>
  
  <!-- Shield shape -->
  <path d="M8,1.5 L3,3.5 L3,6 C3,9.5 5,12.6 8,13.5 C11,12.6 13,9.5 13,6 L13,3.5 L8,1.5 Z" 
        fill="white" opacity="0.9"/>
  
  <!-- Lock -->
  <path d="M8,5 C8.8,5 9.5,5.6 9.5,6.2 L9.5,7 C9.9,7 10.2,7.4 10.2,7.7 L10.2,9.7 C10.2,10.1 9.9,10.4 9.5,10.4 L6.5,10.4 C6.1,10.4 5.8,10.1 5.8,9.7 L5.8,7.7 C5.8,7.4 6.1,7 6.5,7 L6.5,6.2 C6.5,5.6 7.2,5 8,5 Z M8,5.5 C7.5,5.5 7,5.8 7,6.2 L7,7 L9,7 L9,6.2 C9,5.8 8.5,5.5 8,5.5 Z" 
        fill="url(#grad1)"/>
  
  <!-- Key hole -->
  <circle cx="8" cy="8.5" r="0.5" fill="white"/>
  <rect x="7.8" y="8.5" width="0.4" height="1" fill="white"/>
</svg>